<svg width="1000" height="1000" viewBox="0 0 1000 1000" fill="none" xmlns="http://www.w3.org/2000/svg">
<rect width="1000" height="1000" fill="#020817"/>
<path d="M241.909 501.273V460.182C263 460.182 277.606 456 285.727 447.636C293.97 439.273 298.091 426 298.091 407.818V373.455C298.091 349.091 301.667 329.939 308.818 316C316.091 302.061 325.97 291.818 338.455 285.273C351.061 278.727 365.606 274.606 382.091 272.909C398.576 271.091 416.091 270.182 434.636 270.182V335.455C420.091 335.455 409.182 337.212 401.909 340.727C394.758 344.242 389.97 349.576 387.545 356.727C385.121 363.879 383.909 372.909 383.909 383.818V430.364C383.909 439.576 382.03 448.424 378.273 456.909C374.515 465.394 367.606 472.97 357.545 479.636C347.485 486.303 333.121 491.576 314.455 495.455C295.909 499.333 271.727 501.273 241.909 501.273ZM434.636 728.545C416.091 728.545 398.576 727.636 382.091 725.818C365.606 724.121 351.061 720 338.455 713.455C325.97 706.909 316.091 696.667 308.818 682.727C301.667 668.788 298.091 649.636 298.091 625.273V591.091C298.091 572.788 293.97 559.515 285.727 551.273C277.606 542.909 263 538.727 241.909 538.727V497.455C271.727 497.455 295.909 499.455 314.455 503.455C333.121 507.333 347.485 512.606 357.545 519.273C367.606 525.818 374.515 533.333 378.273 541.818C382.03 550.303 383.909 559.152 383.909 568.364V614.909C383.909 625.818 385.121 634.848 387.545 642C389.97 649.152 394.758 654.485 401.909 658C409.182 661.515 420.091 663.273 434.636 663.273V728.545ZM241.909 538.727V460.182H314.455V538.727H241.909ZM757.045 497.455V538.727C736.076 538.727 721.47 542.909 713.227 551.273C704.985 559.515 700.864 572.788 700.864 591.091V625.273C700.864 649.636 697.227 668.788 689.955 682.727C682.803 696.667 672.924 706.909 660.318 713.455C647.833 720 633.348 724.121 616.864 725.818C600.5 727.636 582.985 728.545 564.318 728.545V663.273C578.864 663.273 589.712 661.515 596.864 658C604.136 654.485 608.985 649.152 611.409 642C613.833 634.848 615.045 625.818 615.045 614.909V568.364C615.045 559.152 616.924 550.303 620.682 541.818C624.439 533.333 631.348 525.818 641.409 519.273C651.47 512.606 665.773 507.333 684.318 503.455C702.985 499.455 727.227 497.455 757.045 497.455ZM564.318 270.182C582.985 270.182 600.5 271.091 616.864 272.909C633.348 274.606 647.833 278.727 660.318 285.273C672.924 291.818 682.803 302.061 689.955 316C697.227 329.939 700.864 349.091 700.864 373.455V407.818C700.864 426 704.985 439.273 713.227 447.636C721.47 456 736.076 460.182 757.045 460.182V501.273C727.227 501.273 702.985 499.333 684.318 495.455C665.773 491.576 651.47 486.303 641.409 479.636C631.348 472.97 624.439 465.394 620.682 456.909C616.924 448.424 615.045 439.576 615.045 430.364V383.818C615.045 372.909 613.833 363.879 611.409 356.727C608.985 349.576 604.136 344.242 596.864 340.727C589.712 337.212 578.864 335.455 564.318 335.455V270.182ZM757.045 460.182V538.727H684.5V460.182H757.045Z" fill="#F8FAFC"/>
</svg>
